<svg width="32" height="32" viewBox="0 0 32 32" fill="none" xmlns="http://www.w3.org/2000/svg">
  <!-- Background circle with gradient -->
  <circle cx="16" cy="16" r="16" fill="url(#gradient)" />
  
  <!-- Film icon -->
  <path d="M8 6C7.44772 6 7 6.44772 7 7V25C7 25.5523 7.44772 26 8 26H24C24.5523 26 25 25.5523 25 25V7C25 6.44772 24.5523 6 24 6H8Z" stroke="white" stroke-width="1.5" fill="none"/>
  
  <!-- Film perforations -->
  <rect x="9" y="8" width="2" height="2" rx="1" fill="white"/>
  <rect x="9" y="12" width="2" height="2" rx="1" fill="white"/>
  <rect x="9" y="16" width="2" height="2" rx="1" fill="white"/>
  <rect x="9" y="20" width="2" height="2" rx="1" fill="white"/>
  
  <rect x="21" y="8" width="2" height="2" rx="1" fill="white"/>
  <rect x="21" y="12" width="2" height="2" rx="1" fill="white"/>
  <rect x="21" y="16" width="2" height="2" rx="1" fill="white"/>
  <rect x="21" y="20" width="2" height="2" rx="1" fill="white"/>
  
  <!-- Center frame -->
  <rect x="13" y="10" width="6" height="12" rx="1" stroke="white" stroke-width="1.5" fill="none"/>
  
  <!-- Gradient definition -->
  <defs>
    <linearGradient id="gradient" x1="0%" y1="0%" x2="100%" y2="100%">
      <stop offset="0%" style="stop-color:#007AFF;stop-opacity:1" />
      <stop offset="50%" style="stop-color:#00D4FF;stop-opacity:1" />
      <stop offset="100%" style="stop-color:#007AFF;stop-opacity:1" />
    </linearGradient>
  </defs>
</svg>