<svg width="32" height="32" viewBox="0 0 32 32" fill="none" xmlns="http://www.w3.org/2000/svg">
  <defs>
    <linearGradient id="logoGradient" x1="0%" y1="0%" x2="100%" y2="100%">
      <stop offset="0%" style="stop-color:#007AFF;stop-opacity:1" />
      <stop offset="50%" style="stop-color:#00D4FF;stop-opacity:1" />
      <stop offset="100%" style="stop-color:#007AFF;stop-opacity:1" />
    </linearGradient>
    <filter id="glow" x="-50%" y="-50%" width="200%" height="200%">
      <feGaussianBlur stdDeviation="2" result="coloredBlur"/>
      <feMerge> 
        <feMergeNode in="coloredBlur"/>
        <feMergeNode in="SourceGraphic"/>
      </feMerge>
    </filter>
  </defs>
  
  <!-- Background circle with subtle gradient -->
  <circle cx="16" cy="16" r="15" fill="url(#logoGradient)" opacity="0.1"/>
  
  <!-- Film icon with gradient and glow effect -->
  <g filter="url(#glow)">
    <!-- Film strip body -->
    <rect x="6" y="8" width="20" height="16" rx="2" ry="2" fill="none" stroke="url(#logoGradient)" stroke-width="2"/>
    
    <!-- Film perforations (left side) -->
    <rect x="4" y="10" width="2" height="2" rx="1" fill="url(#logoGradient)"/>
    <rect x="4" y="14" width="2" height="2" rx="1" fill="url(#logoGradient)"/>
    <rect x="4" y="18" width="2" height="2" rx="1" fill="url(#logoGradient)"/>
    
    <!-- Film perforations (right side) -->
    <rect x="26" y="10" width="2" height="2" rx="1" fill="url(#logoGradient)"/>
    <rect x="26" y="14" width="2" height="2" rx="1" fill="url(#logoGradient)"/>
    <rect x="26" y="18" width="2" height="2" rx="1" fill="url(#logoGradient)"/>
    
    <!-- Film frames -->
    <line x1="12" y1="8" x2="12" y2="24" stroke="url(#logoGradient)" stroke-width="1" opacity="0.6"/>
    <line x1="20" y1="8" x2="20" y2="24" stroke="url(#logoGradient)" stroke-width="1" opacity="0.6"/>
    
    <!-- Play button in center frame -->
    <polygon points="15,13 15,19 19,16" fill="url(#logoGradient)"/>
  </g>
</svg>